# xmcd
#
# Track frame offsets:
#	150
#	11865
#	22899
#	32623
#	43212
#	54064
#	64933
#	76969
#	88661
#	99416
#	111002
#	122378
#	133951
#	145436
#	155839
#	166536
#	178076
#	188502
#	200400
#	211206
#	221101
#	231269
#	243427
#	254638
#
# Disc length: 3534 seconds
# Revision: 0
# Processed by: cddbd v1.5.2PL0 Copyright (c) Steve Scherf et al.
# Submitted via: dBpowerAMP V12.0
#
DISCID=500dcc18
DTITLE=Roy Acuff - Favorite Hymns By Roy Acuff - Once More, It's Roy Acuff
DYEAR=1958
DGENRE=Classic Country
TTITLE0=Were You There When They Crucified My Lord
TTITLE1=How Beautiful Heaven Must Be
TTITLE2=Uncloudy Day
TTITLE3=Thank God
TTITLE4=Jesus Died For Me
TTITLE5=Hold To God's Unchanging Hand
TTITLE6=Take My Hand, Precious Lord
TTITLE7=Shake My Mother's Hand For Me
TTITLE8=Where Could I Go But To The Lord
TTITLE9=Where The Soul Never Dies
TTITLE10=Lord, Build Me A Cabin
TTITLE11=This World Is Not My Home
TTITLE12=Once More
TTITLE13=Searchin' For Happiness
TTITLE14=I Don't Care (If You Don't Love Me)
TTITLE15=The One I Love (Is Gone)
TTITLE16=So Many Times
TTITLE17=Come And Knock (On The Door Of My Heart)
TTITLE18=They'll Never Take Her Love From Me
TTITLE19=(Today) My Love Came Back To Me
TTITLE20=Don't Know Why
TTITLE21=Nero Played His Fiddle (While Rome Burnt)
TTITLE22=Thanks For Not Telling Me
TTITLE23=Write Me Sweetheart
EXTD=
EXTT0=
EXTT1=
EXTT2=
EXTT3=
EXTT4=
EXTT5=
EXTT6=
EXTT7=
EXTT8=
EXTT9=
EXTT10=
EXTT11=
EXTT12=
EXTT13=
EXTT14=
EXTT15=
EXTT16=
EXTT17=
EXTT18=
EXTT19=
EXTT20=
EXTT21=
EXTT22=
EXTT23=
PLAYORDER=
